<svg width="30" height="30" viewBox="0 0 30 30" fill="none" xmlns="http://www.w3.org/2000/svg">
<path d="M11.5381 11.25H9.00024C7.60011 11.25 6.89953 11.25 6.36475 11.5225C5.89434 11.7622 5.51217 12.1443 5.27248 12.6147C5 13.1495 5 13.8501 5 15.2502V22.2502C5 23.6504 5 24.3501 5.27248 24.8849C5.51217 25.3553 5.89434 25.7381 6.36475 25.9778C6.899 26.25 7.59878 26.25 8.99617 26.25H21.0039C22.4013 26.25 23.1 26.25 23.6342 25.9778C24.1046 25.7381 24.4881 25.3553 24.7278 24.8849C25 24.3506 25 23.6519 25 22.2545V15.2461C25 13.8487 25 13.149 24.7278 12.6147C24.4881 12.1443 24.1047 11.7622 23.6342 11.5225C23.0995 11.25 22.4004 11.25 21.0002 11.25H18.4612M11.5381 11.25H18.4612M11.5381 11.25C11.3788 11.25 11.25 11.1209 11.25 10.9615V7.5C11.25 5.42893 12.9289 3.75 15 3.75C17.0711 3.75 18.75 5.42893 18.75 7.5V10.9615C18.75 11.1209 18.6205 11.25 18.4612 11.25" stroke="#007AFF" stroke-width="2" stroke-linecap="round" stroke-linejoin="round"/>
</svg>
