<svg width="50" height="50" viewBox="0 0 50 50" fill="none" xmlns="http://www.w3.org/2000/svg">
<path fill-rule="evenodd" clip-rule="evenodd" d="M32.6088 28.4039C33.0744 27.3646 33.3334 26.2126 33.3334 25C33.3334 20.3976 29.6025 16.6667 25.0001 16.6667C23.7875 16.6667 22.6355 16.9257 21.5962 17.3913L23.147 18.9421C23.7331 18.763 24.3554 18.6667 25.0001 18.6667C28.4979 18.6667 31.3334 21.5022 31.3334 25C31.3334 25.6448 31.2371 26.267 31.058 26.8531L32.6088 28.4039ZM20.5029 20.5406C19.3679 21.6852 18.6667 23.2607 18.6667 25C18.6667 28.4978 21.5023 31.3334 25.0001 31.3334C26.7394 31.3334 28.3149 30.6322 29.4595 29.4972L30.8737 30.9114C29.3672 32.4084 27.2917 33.3334 25.0001 33.3334C20.3977 33.3334 16.6667 29.6024 16.6667 25C16.6667 22.7084 17.5917 20.6329 19.0887 19.1264L20.5029 20.5406Z" fill="#64696D"/>
<path fill-rule="evenodd" clip-rule="evenodd" d="M37.4694 33.2647C40.4235 30.8299 42.6419 28.1495 43.7573 26.688C43.7813 26.6566 43.8063 26.6243 43.832 26.5911C44.1313 26.2044 44.5297 25.6897 44.5297 25C44.5297 24.3103 44.1313 23.7956 43.832 23.4089C43.8187 23.3917 43.8056 23.3748 43.7928 23.3582C43.7807 23.3426 43.7689 23.3272 43.7573 23.312C42.5728 21.7598 40.1441 18.8329 36.9113 16.2854C33.6921 13.7486 29.5639 11.5 25.0001 11.5C22.3532 11.5 19.8528 12.2564 17.5913 13.3866L19.0908 14.8861C20.9605 14.0324 22.9499 13.5 25.0001 13.5C28.9163 13.5 32.6107 15.4427 35.6734 17.8562C38.7225 20.259 41.0349 23.0414 42.1674 24.5253C42.2643 24.6523 42.3383 24.7493 42.3998 24.8346C42.4545 24.9103 42.4889 24.9624 42.5111 25C42.4889 25.0376 42.4545 25.0897 42.3998 25.1654C42.3383 25.2507 42.2643 25.3477 42.1674 25.4747C41.0818 26.8972 38.9119 29.5128 36.0482 31.8435L37.4694 33.2647ZM16.3589 16.3968C15.6556 16.8527 14.9769 17.3438 14.3267 17.8562C11.2776 20.259 8.96519 23.0414 7.8327 24.5253C7.73584 24.6523 7.66187 24.7493 7.60028 24.8346C7.54558 24.9103 7.51126 24.9624 7.48897 25C7.51126 25.0376 7.54558 25.0897 7.60028 25.1654C7.66187 25.2507 7.73585 25.3477 7.8327 25.4747C8.96519 26.9586 11.2776 29.741 14.3267 32.1438C17.3895 34.5573 21.0838 36.5 25.0001 36.5C28.0667 36.5 30.9973 35.3088 33.5951 33.633L35.0393 35.0772C32.1537 37.0047 28.7217 38.5 25.0001 38.5C20.4362 38.5 16.308 36.2514 13.0888 33.7146C9.85606 31.1671 7.42737 28.2402 6.24281 26.688C6.2189 26.6567 6.19395 26.6244 6.16826 26.5913L6.16813 26.5911C5.86881 26.2044 5.47046 25.6897 5.47046 25C5.47046 24.3103 5.86881 23.7956 6.16813 23.4089L6.16825 23.4088C6.19394 23.3756 6.2189 23.3433 6.24281 23.312C7.42737 21.7598 9.85606 18.8329 13.0888 16.2854C13.6691 15.8281 14.2788 15.3803 14.9153 14.9533L16.3589 16.3968Z" fill="#64696D"/>
<path d="M10.4167 4.16669L43.7501 37.5" stroke="#64696D" stroke-width="2"/>
</svg>
